<svg version="1.1" id="Layer_1" xmlns="http://www.w3.org/2000/svg" xmlns:xlink="http://www.w3.org/1999/xlink" x="0px"
     y="0px"
     width="100%" viewBox="0 0 512 512" enable-background="new 0 0 512 512" xml:space="preserve">
<path fill="#AAC7FF" opacity="1.000000" stroke="none"
      d="
M288.000000,513.000000 
	C192.023300,513.000000 96.546600,513.000000 1.034948,513.000000 
	C1.034948,342.398285 1.034948,171.796539 1.034948,1.097402 
	C171.560043,1.097402 342.120178,1.097402 512.840149,1.097402 
	C512.840149,171.666550 512.840149,342.333252 512.840149,513.000000 
	C438.129852,513.000000 363.314911,513.000000 288.000000,513.000000 
M351.322174,346.400787 
	C351.634216,346.325775 351.943054,346.239441 352.727203,346.136536 
	C352.727203,346.136536 352.990570,345.737061 353.525299,345.451935 
	C354.291962,344.941132 355.058624,344.430298 355.950531,343.901672 
	C355.950531,343.901672 355.926666,343.777466 356.464050,343.381134 
	C357.662018,342.595886 358.859985,341.810608 360.643555,340.708801 
	C364.408173,337.048523 368.172791,333.388275 372.368134,329.306946 
	C372.904114,328.535980 373.440094,327.764984 373.995605,327.005768 
	C373.995605,327.005768 373.995361,326.984070 374.662720,326.906372 
	C376.944000,323.483978 379.641479,320.260071 381.393860,316.585449 
	C383.287048,312.615570 384.297119,308.224518 386.245056,303.552734 
	C387.205719,302.339844 388.496918,301.264130 389.067566,299.889343 
	C391.100494,294.991730 392.888367,289.992371 395.137604,284.385529 
	C396.246490,281.365417 397.355408,278.345337 399.015564,274.929504 
	C400.470978,270.960968 401.926422,266.992432 403.805847,262.504822 
	C406.511932,254.879852 409.218018,247.254898 412.208527,239.085815 
	C412.383484,237.827118 412.306488,236.465530 412.771942,235.325455 
	C418.124176,222.216202 423.571320,209.145798 428.968079,196.054672 
	C435.143982,181.073547 437.024536,165.761215 433.238770,149.782440 
	C428.030334,127.799225 416.513824,110.241333 396.487915,99.551636 
	C383.405975,92.568573 369.524628,86.965042 355.677734,81.574829 
	C346.478851,77.993958 336.848541,74.251694 327.167511,73.420067 
	C299.440643,71.038223 276.711182,81.993004 258.239532,103.150383 
	C257.727051,103.512558 257.230621,103.900429 256.699493,104.232826 
	C252.650085,106.767052 249.197998,113.202522 249.613937,117.203133 
	C248.324585,119.821297 247.035248,122.439461 245.557434,124.965431 
	C241.924133,132.367432 242.766464,139.308807 247.988052,145.601212 
	C255.629730,154.809998 267.447571,154.956955 278.314331,145.253860 
	C281.433960,140.439621 284.471619,135.569397 287.707275,130.834427 
	C289.360870,128.414551 291.369232,126.237061 293.861816,123.805351 
	C298.260010,121.295013 302.658234,118.784676 307.943329,116.129562 
	C311.301086,115.705101 314.658844,115.280640 318.784515,115.131813 
	C323.264984,116.129967 327.817261,116.885651 332.208405,118.185524 
	C338.161896,119.947876 343.991974,122.127151 350.261566,124.557182 
	C350.897247,124.808609 351.532898,125.060036 352.808624,125.634346 
	C353.509491,125.785767 354.210358,125.937195 355.221954,126.682175 
	C363.404694,130.567078 371.587463,134.451996 380.191986,138.851669 
	C385.771210,143.746979 390.930298,148.974335 391.726013,156.861694 
	C392.369324,163.238190 392.693054,169.646912 392.628998,176.443680 
	C392.375092,177.269424 392.121155,178.095154 391.623749,179.483246 
	C391.517639,180.503464 391.411499,181.523682 391.172241,183.387466 
	C391.077911,184.379471 391.209106,185.461334 390.855072,186.349869 
	C386.166565,198.117050 381.513824,209.900330 376.645691,221.593643 
	C369.463959,238.844208 362.326416,256.118744 354.760773,273.201813 
	C350.296509,283.281982 347.022522,293.948425 339.454651,302.564667 
	C330.564880,312.685974 313.996613,317.626160 301.469360,312.761688 
	C288.185547,307.603424 274.957855,302.288605 261.819427,296.771301 
	C248.828140,291.315765 239.755402,282.278870 236.994843,267.060730 
	C237.562927,263.525024 238.214844,260.000305 238.678482,256.450958 
	C239.293671,251.741287 239.761871,247.012421 240.199982,241.344971 
	C239.506165,236.816223 239.721802,231.881226 237.919891,227.847473 
	C234.662781,220.556152 227.726791,218.058090 220.188217,218.349411 
	C211.573013,218.682312 205.060440,224.587738 202.050644,232.306839 
	C197.425034,244.169922 196.445068,256.386658 197.056412,269.825256 
	C198.324524,277.448700 199.425690,285.107300 201.017410,292.662598 
	C201.298050,293.994659 203.629227,294.894745 205.095551,296.632141 
	C205.070908,296.845062 205.046280,297.058014 204.701004,297.461975 
	C206.764008,305.560913 211.356140,311.997345 217.952820,317.922241 
	C225.574997,325.917175 234.290405,332.303131 245.142639,336.266083 
	C245.428665,336.259399 245.691757,336.333710 246.217285,336.967102 
	C246.393143,337.026398 246.569016,337.085663 247.280884,337.565735 
	C253.500870,340.173218 259.591797,343.167175 265.971069,345.297668 
	C275.552185,348.497498 285.335419,351.092133 295.113098,354.669556 
	C298.984192,355.439362 302.823303,356.560883 306.732086,356.916168 
	C321.236084,358.234589 334.957794,355.271057 348.473389,348.494141 
	C349.227478,347.959229 349.981567,347.424286 350.902740,346.823334 
	C350.902740,346.823334 350.908508,346.643768 351.322174,346.400787 
M180.887650,202.874039 
	C180.887650,202.874039 180.915527,202.826904 181.536957,202.646255 
	C182.327393,202.080917 183.117813,201.515594 184.344559,200.569748 
	C184.901779,200.424805 185.459015,200.279846 186.543655,200.433334 
	C189.090790,199.382874 191.637924,198.332428 195.091431,197.227097 
	C199.669174,197.241058 204.246933,197.255005 209.138397,197.853058 
	C211.752945,198.574234 214.367508,199.295395 217.561676,200.186401 
	C217.958527,200.254364 218.355392,200.322342 218.952530,200.904037 
	C219.961670,201.230011 220.970810,201.556000 222.587631,202.053757 
	C223.004059,202.115570 223.420471,202.177383 224.130615,202.817932 
	C226.415817,203.585648 228.701019,204.353363 231.549759,205.270813 
	C231.922836,205.380005 232.295914,205.489197 233.014404,206.154419 
	C239.403442,208.656555 245.792480,211.158691 252.887329,213.845078 
	C254.826233,214.617996 256.765137,215.390930 259.128845,216.309021 
	C259.439850,216.294281 259.719452,216.380798 260.355652,217.111176 
	C261.232849,217.746338 262.110046,218.381500 263.222992,219.542374 
	C263.839966,219.960815 264.456909,220.379257 265.249542,221.346954 
	C265.567169,221.538010 265.884766,221.729065 266.484955,222.411316 
	C266.995056,222.924652 267.505188,223.437988 268.172455,224.573151 
	C269.030640,225.428513 269.888855,226.283875 271.003143,227.792023 
	C272.493835,229.887344 273.984497,231.982666 275.921509,234.872513 
	C279.052765,241.553741 278.920380,248.247177 276.598480,255.202316 
	C274.419830,261.728516 271.413727,268.302948 275.084930,275.388855 
	C276.429749,277.984589 277.319183,280.816284 278.240906,283.671478 
	C279.002106,284.271606 279.835419,284.800232 280.513184,285.483154 
	C286.051086,291.063751 292.817139,292.277100 299.952271,290.027161 
	C306.481354,287.968353 311.043579,283.482239 312.095154,276.354675 
	C312.095154,276.354675 311.993134,276.066101 312.060303,275.313873 
	C313.366364,273.870453 315.597870,272.558716 315.825012,270.961823 
	C317.092407,262.052277 317.942810,253.079834 318.741760,244.111618 
	C318.849365,242.903931 317.862427,241.598740 317.184509,239.408066 
	C316.983368,228.727829 313.866211,218.839645 308.912933,209.486679 
	C301.332428,195.172943 290.897003,183.563873 276.056641,176.606613 
	C264.367676,171.126755 252.463135,166.095016 240.565018,161.075958 
	C222.891769,153.620728 204.965500,149.082474 185.453430,153.744980 
	C164.704071,158.703186 147.890015,169.336639 137.472733,187.737122 
	C129.129730,202.473663 122.872704,218.432983 116.221962,234.075836 
	C106.569633,256.778656 97.751770,279.839630 87.915550,302.459808 
	C78.723183,323.599365 75.939247,344.789764 84.339882,366.743530 
	C86.224922,371.669830 88.293686,376.525757 90.452782,381.981262 
	C91.628189,384.328613 92.803589,386.675995 94.004997,389.503540 
	C94.004997,389.503540 94.321068,389.865997 94.602837,390.458893 
	C96.076942,392.288208 97.551048,394.117493 98.993767,395.990479 
	C98.993767,395.990479 99.046661,395.980927 99.109688,396.596771 
	C99.731133,397.081207 100.352577,397.565643 101.350960,398.510498 
	C101.714111,398.978363 102.077263,399.446259 102.498207,400.490143 
	C103.360626,401.199585 104.223038,401.909027 105.440193,403.227997 
	C110.924538,407.122589 115.950676,412.058868 121.981277,414.711639 
	C138.443314,421.953033 155.110107,428.880432 172.137497,434.622314 
	C180.918442,437.583344 190.643524,438.975159 199.934250,438.941376 
	C220.186203,438.867828 237.524170,430.519958 252.010223,416.575592 
	C261.189545,407.739471 267.841064,397.102386 270.912445,384.632751 
	C271.497772,382.256195 269.863281,379.332916 268.964386,375.878540 
	C267.787506,373.142029 266.740387,370.340607 265.409485,367.681183 
	C261.338745,359.546844 253.940903,355.778168 244.902802,357.048370 
	C235.595779,358.356415 231.218246,365.042969 227.715866,372.710938 
	C220.308594,388.928284 198.682907,397.462769 182.698257,390.911163 
	C168.609879,385.136780 154.415161,379.611694 140.433456,373.590881 
	C131.402557,369.701935 125.012985,362.902802 120.674416,353.314758 
	C121.341934,347.370239 121.475838,341.301758 122.820702,335.514618 
	C124.290314,329.190704 126.880272,323.127106 129.474258,316.521393 
	C136.961746,297.303711 144.505951,278.107605 151.836197,258.830139 
	C152.467804,257.169067 151.682800,254.969345 151.761993,252.355865 
	C151.903427,252.172287 152.044876,251.988724 152.844910,251.589951 
	C153.692734,251.204742 155.080002,251.017548 155.305283,250.403809 
	C157.663513,243.979538 159.835556,237.486908 162.570663,230.578705 
	C165.190887,224.536560 167.811111,218.494400 171.131104,212.578476 
	C171.700867,211.693008 172.270645,210.807526 173.234985,209.399063 
	C174.805725,207.893326 176.376465,206.387604 178.592575,204.826904 
	C179.341965,204.185394 180.091370,203.543884 180.887650,202.874039 
z"/>
    <path fill="#FCFDFD" opacity="1.000000" stroke="none"
          d="
M90.277878,381.414093 
	C88.293686,376.525757 86.224922,371.669830 84.339882,366.743530 
	C75.939247,344.789764 78.723183,323.599365 87.915550,302.459808 
	C97.751770,279.839630 106.569633,256.778656 116.221962,234.075836 
	C122.872704,218.432983 129.129730,202.473663 137.472733,187.737122 
	C147.890015,169.336639 164.704071,158.703186 185.453430,153.744980 
	C204.965500,149.082474 222.891769,153.620728 240.565018,161.075958 
	C252.463135,166.095016 264.367676,171.126755 276.056641,176.606613 
	C290.897003,183.563873 301.332428,195.172943 308.912933,209.486679 
	C313.866211,218.839645 316.983368,228.727829 317.194275,240.301361 
	C316.307251,250.331299 315.410492,259.467957 314.483917,268.908295 
	C311.027924,271.778168 310.536072,273.071503 311.993134,276.066101 
	C311.993134,276.066101 312.095154,276.354675 312.322937,276.756531 
	C310.450195,278.787231 308.196198,280.253937 306.275391,282.072571 
	C297.368164,290.506165 287.903534,286.942810 278.416321,283.540344 
	C277.319183,280.816284 276.429749,277.984589 275.084930,275.388855 
	C271.413727,268.302948 274.419830,261.728516 276.598480,255.202316 
	C278.920380,248.247177 279.052765,241.553741 275.671967,234.205154 
	C274.680176,231.339767 273.937927,229.141739 273.123505,226.610229 
	C272.895874,225.872986 272.740448,225.469238 272.435120,224.810150 
	C271.574066,223.647949 270.862915,222.741089 270.076477,221.916687 
	C270.001221,221.999130 270.156494,221.838638 270.143860,221.631699 
	C270.114929,221.092194 269.941589,220.905273 269.437500,220.546509 
	C263.390137,216.224136 257.914246,211.367676 251.557037,208.397858 
	C239.625198,202.823837 227.249786,198.168274 214.935730,193.452209 
	C202.497864,188.688736 190.761703,190.240341 179.750397,198.401001 
	C178.290039,199.591415 177.145844,200.795212 176.000824,201.999512 
	C176.000000,202.000000 175.999023,202.001678 175.695114,202.076385 
	C174.618103,203.110855 173.845001,204.070618 172.734833,205.078384 
	C171.618683,206.421799 170.839600,207.717224 169.861389,209.257050 
	C169.331161,210.242157 169.000061,210.982819 168.381592,211.905685 
	C166.556580,214.917770 163.764557,217.749115 163.767776,220.577255 
	C163.772934,225.110077 161.743271,228.018768 159.039825,231.380096 
	C156.697021,238.434998 154.441666,245.120071 152.186310,251.805145 
	C152.044876,251.988724 151.903427,252.172287 151.431152,252.757721 
	C147.725479,261.103577 144.350662,269.047546 140.813156,277.171814 
	C140.489548,277.654663 140.458832,277.969910 140.304596,278.526001 
	C139.221756,280.866608 138.392685,282.979004 137.390839,285.387115 
	C137.148773,286.133240 137.079468,286.583679 136.737305,287.171021 
	C136.144455,288.230621 135.824432,289.153320 135.336075,290.355133 
	C135.096542,291.062042 135.025345,291.489868 134.656464,292.050140 
	C133.730942,293.812469 133.103119,295.442291 132.314240,297.407379 
	C129.730774,303.667267 127.277725,309.579620 124.892647,315.519257 
	C120.641045,326.107178 116.002838,336.639069 120.272682,348.447571 
	C120.869164,350.097168 121.064346,351.891846 121.445282,353.619385 
	C125.012985,362.902802 131.402557,369.701935 140.433456,373.590881 
	C154.415161,379.611694 168.609879,385.136780 182.698257,390.911163 
	C198.682907,397.462769 220.308594,388.928284 227.715866,372.710938 
	C231.218246,365.042969 235.595779,358.356415 244.902802,357.048370 
	C253.940903,355.778168 261.338745,359.546844 265.409485,367.681183 
	C266.740387,370.340607 267.787506,373.142029 268.774353,376.408630 
	C264.322296,385.322174 261.200714,394.574280 255.594864,401.934082 
	C234.724731,429.334106 198.325806,440.128784 164.863693,426.366028 
	C153.001617,421.487213 141.098465,416.708252 129.011047,411.627930 
	C127.182549,410.697876 125.557076,410.023621 123.762863,409.113281 
	C123.219276,408.831299 122.844437,408.785400 122.278137,408.457214 
	C118.027191,405.862396 113.967712,403.549866 109.754471,400.976929 
	C108.789856,400.125153 107.979012,399.533783 107.097328,398.641785 
	C106.342094,397.909912 105.657707,397.478638 104.986801,397.023926 
	C105.000282,397.000549 104.952911,397.026306 104.896835,396.737793 
	C104.208427,396.060699 103.576103,395.672150 102.730377,395.044678 
	C101.933022,394.235168 101.349052,393.664551 100.685928,392.772156 
	C98.768028,390.597290 96.929276,388.744171 94.923599,386.591370 
	C93.263741,384.665802 91.770813,383.039948 90.277878,381.414093 
z"/>
    <path fill="#FDFDFD" opacity="1.000000" stroke="none"
          d="
M197.046371,268.889709 
	C196.445068,256.386658 197.425034,244.169922 202.050644,232.306839 
	C205.060440,224.587738 211.573013,218.682312 220.188217,218.349411 
	C227.726791,218.058090 234.662781,220.556152 237.919891,227.847473 
	C239.721802,231.881226 239.506165,236.816223 239.894318,241.945099 
	C238.081131,248.329651 236.200943,254.053207 235.241486,259.927155 
	C234.832764,262.429474 236.348999,265.246216 236.990448,267.920074 
	C239.755402,282.278870 248.828140,291.315765 261.819427,296.771301 
	C274.957855,302.288605 288.185547,307.603424 301.469360,312.761688 
	C313.996613,317.626160 330.564880,312.685974 339.454651,302.564667 
	C347.022522,293.948425 350.296509,283.281982 354.760773,273.201813 
	C362.326416,256.118744 369.463959,238.844208 376.645691,221.593643 
	C381.513824,209.900330 386.166565,198.117050 390.855072,186.349869 
	C391.209106,185.461334 391.077911,184.379471 391.422241,182.762894 
	C392.223541,181.112503 392.774841,180.086685 393.569580,178.758957 
	C393.859436,178.202698 393.905853,177.948334 394.268555,177.541809 
	C398.789886,162.618286 395.169403,149.826508 384.664398,138.879578 
	C383.650238,137.822754 381.904541,137.467896 380.463318,136.742310 
	C380.428192,136.697433 380.314026,136.710205 380.444885,136.357239 
	C380.078094,135.465881 379.580444,134.927505 378.932800,134.106461 
	C377.646545,133.196594 376.557739,132.454865 375.366089,131.961563 
	C369.612244,129.579712 363.830719,127.264732 357.881104,124.645050 
	C355.203186,123.448967 352.644684,122.666580 350.213440,121.595428 
	C340.495697,117.313980 330.962006,112.483627 319.580139,112.014236 
	C314.661835,112.869759 310.181946,113.830513 305.341064,114.810814 
	C299.977722,116.475395 295.663391,119.007896 293.217255,123.950020 
	C291.369232,126.237061 289.360870,128.414551 287.707275,130.834427 
	C284.471619,135.569397 281.433960,140.439621 277.990417,145.676987 
	C273.080597,147.022049 268.356476,149.132614 263.937500,148.618790 
	C254.701508,147.544891 249.300995,140.853806 246.600159,132.486511 
	C246.048126,130.776306 242.818497,127.622429 246.602646,125.366287 
	C246.478882,125.302696 246.360107,125.224846 246.230042,125.179214 
	C246.073685,125.124367 245.907715,125.096924 245.745911,125.057625 
	C247.035248,122.439461 248.324585,119.821297 250.168732,116.856346 
	C253.309296,111.909714 255.895065,107.309875 258.480835,102.710030 
	C276.711182,81.993004 299.440643,71.038223 327.167511,73.420067 
	C336.848541,74.251694 346.478851,77.993958 355.677734,81.574829 
	C369.524628,86.965042 383.405975,92.568573 396.487915,99.551636 
	C416.513824,110.241333 428.030334,127.799225 433.238770,149.782440 
	C437.024536,165.761215 435.143982,181.073547 428.968079,196.054672 
	C423.571320,209.145798 418.124176,222.216202 412.771942,235.325455 
	C412.306488,236.465530 412.383484,237.827118 411.732605,239.505569 
	C407.886993,247.631088 404.517303,255.336838 400.994019,263.362793 
	C399.565460,266.781281 398.290466,269.879608 396.826050,273.282654 
	C395.053162,277.368683 393.469696,281.149994 391.634949,285.039307 
	C391.598724,285.791595 391.813843,286.435791 391.707581,287.145142 
	C390.935089,288.138550 390.483978,289.066895 389.921753,290.330353 
	C388.858795,292.559723 387.843842,294.425415 386.970001,296.354950 
	C385.669525,299.226562 384.468750,302.143280 383.034973,305.360168 
	C379.455963,312.051697 376.067474,318.423859 372.391602,324.951904 
	C368.663025,328.553528 365.387482,332.186554 361.746613,335.406464 
	C353.905609,342.340820 344.938599,347.894348 334.959106,350.577972 
	C326.586182,352.829498 317.601501,352.939575 308.858551,353.627411 
	C304.262634,353.988953 299.604309,353.556610 294.616577,353.348785 
	C293.237000,352.224518 292.387665,350.784485 291.165558,350.315186 
	C281.498688,346.603088 271.866180,342.737183 261.991333,339.663208 
	C258.192688,338.480682 254.663498,335.146271 250.208115,336.571869 
	C249.871689,335.531311 249.603485,334.509766 249.009964,334.259399 
	C238.354599,329.764954 228.659302,323.756958 219.909393,316.195770 
	C219.517349,315.856964 218.671677,316.043121 218.017334,315.688080 
	C216.634171,313.064026 215.457794,310.598969 213.866653,308.439545 
	C211.051315,304.618683 207.983673,300.983704 205.021637,297.270935 
	C205.046280,297.058014 205.070908,296.845062 205.141998,295.998352 
	C204.465515,293.343323 203.564636,291.366028 203.053055,289.292633 
	C201.518768,283.074005 200.171997,276.809143 198.642731,270.589172 
	C198.481049,269.931610 197.595886,269.451935 197.046371,268.889709 
z"/>
    <path fill="#15171A" opacity="1.000000" stroke="none"
          d="
M129.214066,411.883728 
	C141.098465,416.708252 153.001617,421.487213 164.863693,426.366028 
	C198.325806,440.128784 234.724731,429.334106 255.594864,401.934082 
	C261.200714,394.574280 264.322296,385.322174 268.918610,376.800293 
	C269.863281,379.332916 271.497772,382.256195 270.912445,384.632751 
	C267.841064,397.102386 261.189545,407.739471 252.010223,416.575592 
	C237.524170,430.519958 220.186203,438.867828 199.934250,438.941376 
	C190.643524,438.975159 180.918442,437.583344 172.137497,434.622314 
	C155.110107,428.880432 138.443314,421.953033 121.981277,414.711639 
	C115.950676,412.058868 110.924538,407.122589 105.245369,402.627686 
	C104.180496,401.322968 103.310440,400.618561 102.440399,399.914124 
	C102.077263,399.446259 101.714111,398.978363 101.136375,397.961121 
	C100.296745,396.934845 99.671700,396.457886 99.046661,395.980927 
	C99.046661,395.980927 98.993767,395.990479 99.031197,395.636658 
	C99.634117,394.553192 100.199600,393.823547 100.765091,393.093933 
	C101.349052,393.664551 101.933022,394.235168 102.760338,395.348572 
	C103.653427,396.269653 104.303177,396.647980 104.952911,397.026306 
	C104.952911,397.026306 105.000282,397.000549 105.017593,397.357605 
	C105.745987,398.123901 106.457062,398.533173 107.168152,398.942413 
	C107.979012,399.533783 108.789856,400.125153 109.798492,401.314392 
	C114.154045,404.188049 118.311813,406.463806 122.469582,408.739563 
	C122.844437,408.785400 123.219276,408.831299 123.836319,409.446777 
	C125.790367,410.638855 127.502213,411.261292 129.214066,411.883728 
z"/>
    <path fill="#1A1C1F" opacity="1.000000" stroke="none"
          d="
M170.060516,209.012634 
	C170.839600,207.717224 171.618683,206.421799 173.072296,205.072617 
	C174.497574,204.013123 175.248306,203.007401 175.999023,202.001678 
	C175.999023,202.001678 176.000000,202.000000 176.327698,201.991379 
	C177.792450,200.793304 178.929504,199.603851 180.066559,198.414383 
	C190.761703,190.240341 202.497864,188.688736 214.935730,193.452209 
	C227.249786,198.168274 239.625198,202.823837 251.557037,208.397858 
	C257.914246,211.367676 263.390137,216.224136 269.089233,220.640686 
	C268.010529,221.341599 267.106476,221.630859 266.202393,221.920120 
	C265.884766,221.729065 265.567169,221.538010 265.110229,220.766510 
	C264.309692,219.796265 263.648468,219.406479 262.987213,219.016678 
	C262.110046,218.381500 261.232849,217.746338 260.013733,216.641571 
	C259.349213,216.169266 259.026611,216.166565 258.704041,216.163849 
	C256.765137,215.390930 254.826233,214.617996 252.404114,213.439667 
	C245.503616,210.555634 239.086304,208.077011 232.669006,205.598389 
	C232.295914,205.489197 231.922836,205.380005 231.067963,204.905609 
	C228.336426,203.773331 226.086670,203.006271 223.836899,202.239212 
	C223.420471,202.177383 223.004059,202.115570 222.153656,201.664978 
	C220.730530,200.980896 219.741379,200.685608 218.752243,200.390305 
	C218.355392,200.322342 217.958527,200.254364 217.081879,199.800247 
	C214.009613,198.699051 211.417145,197.984009 208.824677,197.268951 
	C204.246933,197.255005 199.669174,197.241058 194.264587,197.152496 
	C190.963898,198.096893 188.490067,199.115906 186.016235,200.134903 
	C185.459015,200.279846 184.901779,200.424805 183.805038,200.749023 
	C182.482193,201.561172 181.698853,202.194031 180.915527,202.826904 
	C180.915527,202.826904 180.887650,202.874039 180.544739,202.886780 
	C179.450302,203.560303 178.698761,204.221100 177.947205,204.881866 
	C176.376465,206.387604 174.805725,207.893326 172.774734,209.696198 
	C171.874756,210.277649 171.435013,210.561935 170.969940,210.576202 
	C170.649918,209.875000 170.355225,209.443817 170.060516,209.012634 
z"/>
    <path fill="#1E2126" opacity="1.000000" stroke="none"
          d="
M294.974152,353.482758 
	C299.604309,353.556610 304.262634,353.988953 308.858551,353.627411 
	C317.601501,352.939575 326.586182,352.829498 334.959106,350.577972 
	C344.938599,347.894348 353.905609,342.340820 361.746613,335.406464 
	C365.387482,332.186554 368.663025,328.553528 372.669373,325.143768 
	C373.488129,325.781158 373.741760,326.382629 373.995361,326.984070 
	C373.995361,326.984070 373.995605,327.005768 373.684326,327.082031 
	C372.894501,328.014862 372.415955,328.871429 371.937408,329.727997 
	C368.172791,333.388275 364.408173,337.048523 360.022888,340.880981 
	C358.243713,341.961273 357.085205,342.869354 355.926666,343.777466 
	C355.926666,343.777466 355.950531,343.901672 355.583984,343.918884 
	C354.475159,344.536377 353.732849,345.136719 352.990570,345.737061 
	C352.990570,345.737061 352.727203,346.136536 352.223999,346.076416 
	C351.450012,346.225433 351.179260,346.434631 350.908508,346.643799 
	C350.908508,346.643768 350.902740,346.823334 350.518372,346.856598 
	C349.402557,347.507690 348.671143,348.125488 347.939697,348.743317 
	C334.957794,355.271057 321.236084,358.234589 306.732086,356.916168 
	C302.823303,356.560883 298.984192,355.439362 295.114685,354.184326 
	C295.116241,353.699066 294.974152,353.482758 294.974152,353.482758 
z"/>
    <path fill="#1E2126" opacity="1.000000" stroke="none"
          d="
M134.954147,291.917664 
	C135.025345,291.489868 135.096542,291.062042 135.632172,290.253174 
	C136.401138,288.926117 136.705643,287.980103 137.010162,287.034119 
	C137.079468,286.583679 137.148773,286.133240 137.730011,285.396423 
	C138.453903,286.488007 139.191803,288.044342 138.794571,289.215729 
	C135.645569,298.501831 132.280548,307.714691 128.981903,316.950043 
	C126.880272,323.127106 124.290314,329.190704 122.820702,335.514618 
	C121.475838,341.301758 121.341934,347.370239 121.059845,353.467072 
	C121.064346,351.891846 120.869164,350.097168 120.272682,348.447571 
	C116.002838,336.639069 120.641045,326.107178 124.892647,315.519257 
	C127.277725,309.579620 129.730774,303.667267 132.635834,297.325958 
	C133.730362,295.245422 134.342255,293.581543 134.954147,291.917664 
z"/>
    <path fill="#202227" opacity="1.000000" stroke="none"
          d="
M245.651672,125.011528 
	C245.907715,125.096924 246.073685,125.124367 246.230042,125.179214 
	C246.360107,125.224846 246.478882,125.302696 246.602646,125.366287 
	C242.818497,127.622429 246.048126,130.776306 246.600159,132.486511 
	C249.300995,140.853806 254.701508,147.544891 263.937500,148.618790 
	C268.356476,149.132614 273.080597,147.022049 277.945496,146.111328 
	C267.447571,154.956955 255.629730,154.809998 247.988052,145.601212 
	C242.766464,139.308807 241.924133,132.367432 245.651672,125.011528 
z"/>
    <path fill="#3C4048" opacity="1.000000" stroke="none"
          d="
M294.616577,353.348785 
	C294.974152,353.482758 295.116241,353.699066 295.074463,353.821564 
	C285.335419,351.092133 275.552185,348.497498 265.971069,345.297668 
	C259.591797,343.167175 253.500870,340.173218 247.431396,337.287109 
	C248.429581,336.988892 249.277252,336.969330 250.124924,336.949799 
	C254.663498,335.146271 258.192688,338.480682 261.991333,339.663208 
	C271.866180,342.737183 281.498688,346.603088 291.165558,350.315186 
	C292.387665,350.784485 293.237000,352.224518 294.616577,353.348785 
z"/>
    <path fill="#3C4048" opacity="1.000000" stroke="none"
          d="
M129.228088,316.735718 
	C132.280548,307.714691 135.645569,298.501831 138.794571,289.215729 
	C139.191803,288.044342 138.453903,286.488007 137.902771,285.100739 
	C138.392685,282.979004 139.221756,280.866608 140.431351,278.852692 
	C141.201141,279.336273 141.590408,279.721313 141.979691,280.106384 
	C142.334641,278.748718 142.689590,277.391083 143.327911,275.886749 
	C144.061722,274.840820 144.512146,273.941589 144.962570,273.042328 
	C144.595261,272.904877 144.227951,272.767456 143.860641,272.630005 
	C143.560944,273.740906 143.261246,274.851776 142.712555,276.094849 
	C141.967636,276.481842 141.471725,276.736664 140.975830,276.991516 
	C144.350662,269.047546 147.725479,261.103577 151.328079,253.089722 
	C151.682800,254.969345 152.467804,257.169067 151.836197,258.830139 
	C144.505951,278.107605 136.961746,297.303711 129.228088,316.735718 
M140.219940,282.782715 
	C140.350266,282.955048 140.480606,283.127350 140.610931,283.299683 
	C140.582199,283.057556 140.553482,282.815460 140.219940,282.782715 
z"/>
    <path fill="#24272C" opacity="1.000000" stroke="none"
          d="
M250.208115,336.571869 
	C249.277252,336.969330 248.429581,336.988892 247.163391,337.076721 
	C246.569016,337.085663 246.393143,337.026398 245.928955,336.557983 
	C245.346115,335.997009 245.047974,335.989960 244.746216,336.127747 
	C234.290405,332.303131 225.574997,325.917175 217.956268,317.284576 
	C217.985550,316.426208 218.011414,316.205505 218.037292,315.984802 
	C218.671677,316.043121 219.517349,315.856964 219.909393,316.195770 
	C228.659302,323.756958 238.354599,329.764954 249.009964,334.259399 
	C249.603485,334.509766 249.871689,335.531311 250.208115,336.571869 
z"/>
    <path fill="#202227" opacity="1.000000" stroke="none"
          d="
M278.328613,283.605896 
	C287.903534,286.942810 297.368164,290.506165 306.275391,282.072571 
	C308.196198,280.253937 310.450195,278.787231 312.475067,276.773193 
	C311.043579,283.482239 306.481354,287.968353 299.952271,290.027161 
	C292.817139,292.277100 286.051086,291.063751 280.513184,285.483154 
	C279.835419,284.800232 279.002106,284.271606 278.328613,283.605896 
z"/>
    <path fill="#565C68" opacity="1.000000" stroke="none"
          d="
M380.498444,136.787201 
	C381.904541,137.467896 383.650238,137.822754 384.664398,138.879578 
	C395.169403,149.826508 398.789886,162.618286 394.293793,177.294220 
	C393.721405,176.812973 393.439972,176.427155 393.158569,176.041336 
	C392.693054,169.646912 392.369324,163.238190 391.726013,156.861694 
	C390.930298,148.974335 385.771210,143.746979 380.136536,138.194229 
	C380.220215,137.286911 380.359314,137.037048 380.498444,136.787201 
z"/>
    <path fill="#3F454F" opacity="1.000000" stroke="none"
          d="
M320.018585,112.119469 
	C330.962006,112.483627 340.495697,117.313980 350.213440,121.595428 
	C352.644684,122.666580 355.203186,123.448967 357.841064,124.935287 
	C356.956360,125.700531 355.933777,125.894577 354.911224,126.088623 
	C354.210358,125.937195 353.509491,125.785767 352.375000,125.211456 
	C351.252563,124.568237 350.563782,124.347908 349.874969,124.127586 
	C343.991974,122.127151 338.161896,119.947876 332.208405,118.185524 
	C327.817261,116.885651 323.264984,116.129967 318.564636,114.763336 
	C318.902710,113.636391 319.460663,112.877930 320.018585,112.119469 
z"/>
    <path fill="#565C68" opacity="1.000000" stroke="none"
          d="
M218.017334,315.688110 
	C218.011414,316.205505 217.985550,316.426208 217.840179,316.957825 
	C211.356140,311.997345 206.764008,305.560913 204.861328,297.366455 
	C207.983673,300.983704 211.051315,304.618683 213.866653,308.439545 
	C215.457794,310.598969 216.634171,313.064026 218.017334,315.688110 
z"/>
    <path fill="#3C4048" opacity="1.000000" stroke="none"
          d="
M374.329041,326.945221 
	C373.741760,326.382629 373.488129,325.781158 372.956757,324.987854 
	C376.067474,318.423859 379.455963,312.051697 383.313019,305.366882 
	C384.418518,304.708557 385.055450,304.362885 385.692383,304.017212 
	C384.297119,308.224518 383.287048,312.615570 381.393860,316.585449 
	C379.641479,320.260071 376.944000,323.483978 374.329041,326.945221 
z"/>
    <path fill="#676E7D" opacity="1.000000" stroke="none"
          d="
M355.066589,126.385399 
	C355.933777,125.894577 356.956360,125.700531 358.018982,125.216255 
	C363.830719,127.264732 369.612244,129.579712 375.366089,131.961563 
	C376.557739,132.454865 377.646545,133.196594 378.927521,134.484146 
	C379.486176,135.666397 379.900085,136.188309 380.314026,136.710205 
	C380.314026,136.710205 380.428192,136.697433 380.463318,136.742310 
	C380.359314,137.037048 380.220215,137.286911 379.925659,137.936844 
	C371.587463,134.451996 363.404694,130.567078 355.066589,126.385399 
z"/>
    <path fill="#8D99B1" opacity="1.000000" stroke="none"
          d="
M312.026733,275.690002 
	C310.536072,273.071503 311.027924,271.778168 314.483917,268.908295 
	C315.410492,259.467957 316.307251,250.331299 317.293182,240.766663 
	C317.862427,241.598740 318.849365,242.903931 318.741760,244.111618 
	C317.942810,253.079834 317.092407,262.052277 315.825012,270.961823 
	C315.597870,272.558716 313.366364,273.870453 312.026733,275.690002 
z"/>
    <path fill="#A2ADC2" opacity="1.000000" stroke="none"
          d="
M197.051392,269.357483 
	C197.595886,269.451935 198.481049,269.931610 198.642731,270.589172 
	C200.171997,276.809143 201.518768,283.074005 203.053055,289.292633 
	C203.564636,291.366028 204.465515,293.343323 205.100952,295.679443 
	C203.629227,294.894745 201.298050,293.994659 201.017410,292.662598 
	C199.425690,285.107300 198.324524,277.448700 197.051392,269.357483 
z"/>
    <path fill="#A2ADC2" opacity="1.000000" stroke="none"
          d="
M236.992645,267.490417 
	C236.348999,265.246216 234.832764,262.429474 235.241486,259.927155 
	C236.200943,254.053207 238.081131,248.329651 239.940948,242.418518 
	C239.761871,247.012421 239.293671,251.741287 238.678482,256.450958 
	C238.214844,260.000305 237.562927,263.525024 236.992645,267.490417 
z"/>
    <path fill="#676E7D" opacity="1.000000" stroke="none"
          d="
M159.127289,231.010284 
	C161.743271,228.018768 163.772934,225.110077 163.767776,220.577255 
	C163.764557,217.749115 166.556580,214.917770 168.549881,212.105316 
	C169.417526,212.164658 169.829514,212.206558 170.290131,212.298309 
	C170.338745,212.348175 170.431320,212.452255 170.431320,212.452255 
	C167.811111,218.494400 165.190887,224.536560 161.948395,230.788391 
	C160.593185,231.002136 159.860229,231.006210 159.127289,231.010284 
z"/>
    <path fill="#A2ADC2" opacity="1.000000" stroke="none"
          d="
M401.147583,263.042603 
	C404.517303,255.336838 407.886993,247.631088 411.590393,239.777618 
	C409.218018,247.254898 406.511932,254.879852 403.217072,262.761292 
	C402.134735,263.026062 401.641144,263.034332 401.147583,263.042603 
z"/>
    <path fill="#565C68" opacity="1.000000" stroke="none"
          d="
M159.039825,231.380096 
	C159.860229,231.006210 160.593185,231.002136 161.692627,231.005615 
	C159.835556,237.486908 157.663513,243.979538 155.305283,250.403809 
	C155.080002,251.017548 153.692734,251.204742 152.515625,251.697540 
	C154.441666,245.120071 156.697021,238.434998 159.039825,231.380096 
z"/>
    <path fill="#565C68" opacity="1.000000" stroke="none"
          d="
M385.968750,303.784973 
	C385.055450,304.362885 384.418518,304.708557 383.503540,305.047485 
	C384.468750,302.143280 385.669525,299.226562 386.970001,296.354950 
	C387.843842,294.425415 388.858795,292.559723 390.192596,290.170013 
	C391.059357,288.809692 391.544159,287.944855 392.028961,287.080017 
	C391.813843,286.435791 391.598724,285.791595 391.993774,285.079254 
	C393.325623,285.017944 394.047333,285.024750 394.769012,285.031555 
	C392.888367,289.992371 391.100494,294.991730 389.067566,299.889343 
	C388.496918,301.264130 387.205719,302.339844 385.968750,303.784973 
z"/>
    <path fill="#848FA4" opacity="1.000000" stroke="none"
          d="
M258.360168,102.930206 
	C255.895065,107.309875 253.309296,111.909714 250.416016,116.526123 
	C249.197998,113.202522 252.650085,106.767052 256.699493,104.232826 
	C257.230621,103.900429 257.727051,103.512558 258.360168,102.930206 
z"/>
    <path fill="#6F7582" opacity="1.000000" stroke="none"
          d="
M319.580139,112.014236 
	C319.460663,112.877930 318.902710,113.636391 318.180695,114.625511 
	C314.658844,115.280640 311.301086,115.705101 307.253754,115.973595 
	C306.276825,115.475502 305.989441,115.133385 305.702087,114.791260 
	C310.181946,113.830513 314.661835,112.869759 319.580139,112.014236 
z"/>
    <path fill="#A2ADC2" opacity="1.000000" stroke="none"
          d="
M305.341064,114.810806 
	C305.989441,115.133385 306.276825,115.475502 306.810303,116.045982 
	C302.658234,118.784676 298.260010,121.295013 293.539551,123.877686 
	C295.663391,119.007896 299.977722,116.475395 305.341064,114.810806 
z"/>
    <path fill="#848FA4" opacity="1.000000" stroke="none"
          d="
M400.994019,263.362793 
	C401.641144,263.034332 402.134735,263.026062 403.005066,263.020813 
	C401.926422,266.992432 400.470978,270.960968 398.613159,274.794556 
	C397.812317,274.099030 397.413910,273.538483 397.015503,272.977936 
	C398.290466,269.879608 399.565460,266.781281 400.994019,263.362793 
z"/>
    <path fill="#676E7D" opacity="1.000000" stroke="none"
          d="
M232.841705,205.876404 
	C239.086304,208.077011 245.503616,210.555634 252.051208,213.347549 
	C245.792480,211.158691 239.403442,208.656555 232.841705,205.876404 
z"/>
    <path fill="#6F7582" opacity="1.000000" stroke="none"
          d="
M396.826050,273.282654 
	C397.413910,273.538483 397.812317,274.099030 398.337524,274.992401 
	C397.355408,278.345337 396.246490,281.365417 394.953308,284.708557 
	C394.047333,285.024750 393.325623,285.017944 392.245117,284.971191 
	C393.469696,281.149994 395.053162,277.368683 396.826050,273.282654 
z"/>
    <path fill="#373A3E" opacity="1.000000" stroke="none"
          d="
M100.685936,392.772156 
	C100.199600,393.823547 99.634117,394.553192 99.046890,395.614807 
	C97.551048,394.117493 96.076942,392.288208 94.655701,389.958557 
	C94.735237,388.733459 94.761925,388.008698 94.863861,387.185547 
	C94.939117,387.087158 95.090523,386.891083 95.090523,386.891083 
	C96.929276,388.744171 98.768028,390.597290 100.685936,392.772156 
z"/>
    <path fill="#373A3E" opacity="1.000000" stroke="none"
          d="
M273.195679,226.943710 
	C273.937927,229.141739 274.680176,231.339767 275.448792,233.807892 
	C273.984497,231.982666 272.493835,229.887344 271.283783,227.441254 
	C272.108185,227.041565 272.651917,226.992630 273.195679,226.943710 
z"/>
    <path fill="#373A3E" opacity="1.000000" stroke="none"
          d="
M90.365334,381.697693 
	C91.770813,383.039948 93.263741,384.665802 94.923599,386.591370 
	C95.090523,386.891083 94.939117,387.087158 94.648186,387.316406 
	C94.231171,388.038208 94.105080,388.530792 93.978996,389.023346 
	C92.803589,386.675995 91.628189,384.328613 90.365334,381.697693 
z"/>
    <path fill="#676E7D" opacity="1.000000" stroke="none"
          d="
M208.981537,197.561005 
	C211.417145,197.984009 214.009613,198.699051 216.792068,199.715332 
	C214.367508,199.295395 211.752945,198.574234 208.981537,197.561005 
z"/>
    <path fill="#676E7D" opacity="1.000000" stroke="none"
          d="
M186.279938,200.284119 
	C188.490067,199.115906 190.963898,198.096893 193.811401,197.179932 
	C191.637924,198.332428 189.090790,199.382874 186.279938,200.284119 
z"/>
    <path fill="#676E7D" opacity="1.000000" stroke="none"
          d="
M223.983765,202.528564 
	C226.086670,203.006271 228.336426,203.773331 230.786194,204.830734 
	C228.701019,204.353363 226.415817,203.585648 223.983765,202.528564 
z"/>
    <path fill="#1A1C1F" opacity="1.000000" stroke="none"
          d="
M273.123505,226.610229 
	C272.651917,226.992630 272.108185,227.041565 271.155731,227.114868 
	C269.888855,226.283875 269.030640,225.428513 268.251587,223.995087 
	C268.939301,222.890900 269.547882,222.364761 270.156494,221.838638 
	C270.156494,221.838638 270.001221,221.999130 270.085876,222.240784 
	C270.975372,223.343460 271.780182,224.204483 272.584991,225.065491 
	C272.740448,225.469238 272.895874,225.872986 273.123505,226.610229 
z"/>
    <path fill="#565C68" opacity="1.000000" stroke="none"
          d="
M393.326141,179.060867 
	C392.774841,180.086685 392.223541,181.112503 391.488800,182.341110 
	C391.411499,181.523682 391.517639,180.503464 391.989014,179.222763 
	C392.676636,179.010406 393.000610,179.043274 393.326141,179.060867 
z"/>
    <path fill="#3C4048" opacity="1.000000" stroke="none"
          d="
M356.195374,343.579285 
	C357.085205,342.869354 358.243713,341.961273 359.730103,341.039246 
	C358.859985,341.810608 357.662018,342.595886 356.195374,343.579285 
z"/>
    <path fill="#676E7D" opacity="1.000000" stroke="none"
          d="
M218.852386,200.647171 
	C219.741379,200.685608 220.730530,200.980896 221.849808,201.579086 
	C220.970810,201.556000 219.961670,201.230011 218.852386,200.647171 
z"/>
    <path fill="#373A3E" opacity="1.000000" stroke="none"
          d="
M102.469299,400.202148 
	C103.310440,400.618561 104.180496,401.322968 105.068001,402.322937 
	C104.223038,401.909027 103.360626,401.199585 102.469299,400.202148 
z"/>
    <path fill="#373A3E" opacity="1.000000" stroke="none"
          d="
M270.143860,221.631699 
	C269.547882,222.364761 268.939301,222.890900 268.172974,223.684174 
	C267.505188,223.437988 266.995056,222.924652 266.343689,222.165710 
	C267.106476,221.630859 268.010529,221.341599 269.262878,220.958160 
	C269.941589,220.905273 270.114929,221.092194 270.143860,221.631699 
z"/>
    <path fill="#676E7D" opacity="1.000000" stroke="none"
          d="
M393.569580,178.758957 
	C393.000610,179.043274 392.676636,179.010406 392.110748,178.941589 
	C392.121155,178.095154 392.375092,177.269424 392.893799,176.242508 
	C393.439972,176.427155 393.721405,176.812973 393.977539,177.446381 
	C393.905853,177.948334 393.859436,178.202698 393.569580,178.758957 
z"/>
    <path fill="#3C4048" opacity="1.000000" stroke="none"
          d="
M372.152771,329.517456 
	C372.415955,328.871429 372.894501,328.014862 373.674561,327.076172 
	C373.440094,327.764984 372.904114,328.535980 372.152771,329.517456 
z"/>
    <path fill="#676E7D" opacity="1.000000" stroke="none"
          d="
M181.226242,202.736572 
	C181.698853,202.194031 182.482193,201.561172 183.586884,200.939285 
	C183.117813,201.515594 182.327393,202.080917 181.226242,202.736572 
z"/>
    <path fill="#676E7D" opacity="1.000000" stroke="none"
          d="
M178.269897,204.854401 
	C178.698761,204.221100 179.450302,203.560303 180.521301,202.900940 
	C180.091370,203.543884 179.341965,204.185394 178.269897,204.854401 
z"/>
    <path fill="#676E7D" opacity="1.000000" stroke="none"
          d="
M170.995270,210.846222 
	C171.435013,210.561935 171.874756,210.277649 172.577454,209.957703 
	C172.270645,210.807526 171.700867,211.693008 170.781219,212.515366 
	C170.431320,212.452255 170.338745,212.348175 170.471954,212.098907 
	C170.735214,211.515167 170.865234,211.180695 170.995270,210.846222 
z"/>
    <path fill="#3C4048" opacity="1.000000" stroke="none"
          d="
M348.206543,348.618713 
	C348.671143,348.125488 349.402557,347.507690 350.434814,346.889618 
	C349.981567,347.424286 349.227478,347.959229 348.206543,348.618713 
z"/>
    <path fill="#3C4048" opacity="1.000000" stroke="none"
          d="
M353.257935,345.594482 
	C353.732849,345.136719 354.475159,344.536377 355.521362,343.927765 
	C355.058624,344.430298 354.291962,344.941132 353.257935,345.594482 
z"/>
    <path fill="#676E7D" opacity="1.000000" stroke="none"
          d="
M350.068268,124.342384 
	C350.563782,124.347908 351.252563,124.568237 352.054993,125.050018 
	C351.532898,125.060036 350.897247,124.808609 350.068268,124.342384 
z"/>
    <path fill="#373A3E" opacity="1.000000" stroke="none"
          d="
M263.105103,219.279526 
	C263.648468,219.406479 264.309692,219.796265 265.022400,220.491882 
	C264.456909,220.379257 263.839966,219.960815 263.105103,219.279526 
z"/>
    <path fill="#373A3E" opacity="1.000000" stroke="none"
          d="
M99.078171,396.288849 
	C99.671700,396.457886 100.296745,396.934845 100.947906,397.730896 
	C100.352577,397.565643 99.731133,397.081207 99.078171,396.288849 
z"/>
    <path fill="#15171A" opacity="1.000000" stroke="none"
          d="
M93.991997,389.263428 
	C94.105080,388.530792 94.231171,388.038208 94.572929,387.414795 
	C94.761925,388.008698 94.735237,388.733459 94.514816,389.662109 
	C94.321068,389.865997 94.004997,389.503540 93.991997,389.263428 
z"/>
    <path fill="#3C4048" opacity="1.000000" stroke="none"
          d="
M351.115356,346.522278 
	C351.179260,346.434631 351.450012,346.225433 351.984741,346.079041 
	C351.943054,346.239441 351.634216,346.325775 351.115356,346.522278 
z"/>
    <path fill="#3C4048" opacity="1.000000" stroke="none"
          d="
M244.944427,336.196899 
	C245.047974,335.989960 245.346115,335.997009 245.786270,336.318939 
	C245.691757,336.333710 245.428665,336.259399 244.944427,336.196899 
z"/>
    <path fill="#373A3E" opacity="1.000000" stroke="none"
          d="
M258.916443,216.236435 
	C259.026611,216.166565 259.349213,216.169266 259.819763,216.370270 
	C259.719452,216.380798 259.439850,216.294281 258.916443,216.236435 
z"/>
    <path fill="#373A3E" opacity="1.000000" stroke="none"
          d="
M122.278122,408.457245 
	C118.311813,406.463806 114.154045,404.188049 109.952255,401.574829 
	C113.967712,403.549866 118.027191,405.862396 122.278122,408.457245 
z"/>
    <path fill="#373A3E" opacity="1.000000" stroke="none"
          d="
M179.750397,198.401001 
	C178.929504,199.603851 177.792450,200.793304 176.328522,201.990891 
	C177.145844,200.795212 178.290039,199.591415 179.750397,198.401001 
z"/>
    <path fill="#3C4048" opacity="1.000000" stroke="none"
          d="
M134.656464,292.050140 
	C134.342255,293.581543 133.730362,295.245422 132.796875,296.990723 
	C133.103119,295.442291 133.730942,293.812469 134.656464,292.050140 
z"/>
    <path fill="#373A3E" opacity="1.000000" stroke="none"
          d="
M129.011047,411.627930 
	C127.502213,411.261292 125.790367,410.638855 124.005066,409.682892 
	C125.557076,410.023621 127.182549,410.697876 129.011047,411.627930 
z"/>
    <path fill="#1E2126" opacity="1.000000" stroke="none"
          d="
M143.044525,276.033417 
	C142.689590,277.391083 142.334641,278.748718 141.979691,280.106384 
	C141.590408,279.721313 141.201141,279.336273 140.685089,278.624512 
	C140.458832,277.969910 140.489548,277.654663 140.813141,277.171814 
	C141.471725,276.736664 141.967636,276.481842 142.732635,276.113312 
	C143.001709,275.999603 143.044525,276.033417 143.044525,276.033417 
z"/>
    <path fill="#373A3E" opacity="1.000000" stroke="none"
          d="
M170.969940,210.576202 
	C170.865234,211.180695 170.735214,211.515167 170.423340,212.049042 
	C169.829514,212.206558 169.417526,212.164658 168.837250,211.923126 
	C169.000061,210.982819 169.331161,210.242157 169.861389,209.257050 
	C170.355225,209.443817 170.649918,209.875000 170.969940,210.576202 
z"/>
    <path fill="#373A3E" opacity="1.000000" stroke="none"
          d="
M175.695114,202.076385 
	C175.248306,203.007401 174.497574,204.013123 173.409378,205.024612 
	C173.845001,204.070618 174.618103,203.110855 175.695114,202.076385 
z"/>
    <path fill="#373A3E" opacity="1.000000" stroke="none"
          d="
M272.435120,224.810150 
	C271.780182,224.204483 270.975372,223.343460 270.161133,222.158340 
	C270.862915,222.741089 271.574066,223.647949 272.435120,224.810150 
z"/>
    <path fill="#3C4048" opacity="1.000000" stroke="none"
          d="
M136.737305,287.171021 
	C136.705643,287.980103 136.401138,288.926117 135.800507,289.974060 
	C135.824432,289.153320 136.144455,288.230621 136.737305,287.171021 
z"/>
    <path fill="#373A3E" opacity="1.000000" stroke="none"
          d="
M107.097313,398.641846 
	C106.457062,398.533173 105.745987,398.123901 105.004105,397.380981 
	C105.657707,397.478638 106.342094,397.909912 107.097313,398.641846 
z"/>
    <path fill="#373A3E" opacity="1.000000" stroke="none"
          d="
M104.896835,396.737793 
	C104.303177,396.647980 103.653427,396.269653 102.973724,395.587463 
	C103.576103,395.672150 104.208427,396.060699 104.896835,396.737793 
z"/>
    <path fill="#6F7582" opacity="1.000000" stroke="none"
          d="
M391.707581,287.145142 
	C391.544159,287.944855 391.059357,288.809692 390.303711,289.834869 
	C390.483978,289.066895 390.935089,288.138550 391.707581,287.145142 
z"/>
    <path fill="#565C68" opacity="1.000000" stroke="none"
          d="
M380.444885,136.357239 
	C379.900085,136.188309 379.486176,135.666397 379.077515,134.766800 
	C379.580444,134.927505 380.078094,135.465881 380.444885,136.357239 
z"/>
    <path fill="#1E2126" opacity="1.000000" stroke="none"
          d="
M142.981628,275.981140 
	C143.261246,274.851776 143.560944,273.740906 143.860641,272.630005 
	C144.227951,272.767456 144.595261,272.904877 144.962570,273.042328 
	C144.512146,273.941589 144.061722,274.840820 143.327911,275.886749 
	C143.044525,276.033417 143.001709,275.999603 142.981628,275.981140 
z"/>
    <path fill="#1E2126" opacity="1.000000" stroke="none"
          d="
M140.372345,282.678040 
	C140.553482,282.815460 140.582199,283.057556 140.610931,283.299683 
	C140.480606,283.127350 140.350266,282.955048 140.372345,282.678040 
z"/>
</svg>